<svg width="3257" height="1607" viewBox="0 0 3257 1607" fill="none" xmlns="http://www.w3.org/2000/svg">
<path d="M0 500C0 223.858 223.858 0 500 0H2757C3033.14 0 3257 223.858 3257 500V1107C3257 1383.14 3033.14 1607 2757 1607H500C223.858 1607 0 1383.14 0 1107V500Z" fill="black"/>
<path d="M588 754C588 555.177 749.177 394 948 394H2379C2577.82 394 2739 555.177 2739 754V845C2739 1043.82 2577.82 1205 2379 1205H948C749.177 1205 588 1043.82 588 845V754Z" fill="#EED7F7"/>
<path d="M909.855 691.25L884.205 683.15V661.1C888.705 660.5 894.255 659.75 900.855 658.85C907.455 657.95 914.055 657.2 920.655 656.6C927.555 655.7 933.405 655.1 938.205 654.8C943.305 654.5 946.455 654.5 947.655 654.8C949.755 655.1 952.155 656.6 954.855 659.3C957.555 661.7 959.805 664.25 961.605 666.95C963.705 669.65 964.905 671.6 965.205 672.8V900.05L1000.31 908.15L989.055 929.75C984.855 930.35 979.455 931.1 972.855 932C966.255 932.9 959.655 933.65 953.055 934.25C946.755 935.15 941.205 935.75 936.405 936.05C931.605 936.65 928.755 936.8 927.855 936.5C925.755 936.2 923.355 934.7 920.655 932C918.255 929.6 915.855 927.05 913.455 924.35C911.355 921.65 910.155 919.7 909.855 918.5V691.25ZM1005.26 654.35H1044.86C1059.86 654.35 1072.61 657.35 1083.11 663.35C1093.61 669.05 1101.56 678.95 1106.96 693.05C1112.66 707.15 1115.51 726.35 1115.51 750.65C1115.51 758.15 1115.06 765.35 1114.16 772.25C1113.56 779.15 1112.21 785 1110.11 789.8C1108.91 792.8 1106.21 796.4 1102.01 800.6C1098.11 804.8 1093.31 809.15 1087.61 813.65C1082.21 818.15 1076.51 822.5 1070.51 826.7C1064.81 830.6 1059.56 833.9 1054.76 836.6C1049.96 839 1046.36 840.2 1043.96 840.2C1037.06 840.2 1030.01 839.75 1022.81 838.85C1015.91 837.95 1009.01 837.35 1002.11 837.05V800.6L1045.76 810.95C1047.56 811.25 1049.21 810.2 1050.71 807.8C1052.51 805.4 1054.01 801.65 1055.21 796.55C1056.71 791.45 1057.91 785.15 1058.81 777.65C1059.71 769.85 1060.16 761 1060.16 751.1C1060.16 728.3 1058.36 711.05 1054.76 699.35C1051.16 687.65 1044.71 682.25 1035.41 683.15L1002.11 686.3L1005.26 654.35ZM997.155 654.35H1010.66V882.5C1010.66 884.3 1009.76 887.6 1007.96 892.4C1006.16 896.9 1003.61 902.15 1000.31 908.15H986.805V688.55C986.805 685.55 987.855 680.9 989.955 674.6C992.055 668.3 994.455 661.55 997.155 654.35Z" fill="#1D1D1D"/>
<path d="M1137.05 930.2L1140.2 846.5H1170.35L1179.35 892.4C1185.05 894.2 1191.5 896 1198.7 897.8C1206.2 899.6 1213.55 901.25 1220.75 902.75C1227.95 903.95 1234.25 905 1239.65 905.9C1245.35 906.8 1249.4 907.25 1251.8 907.25C1253.9 907.25 1257.2 906.2 1261.7 904.1C1266.2 901.7 1270.85 899 1275.65 896C1280.75 892.7 1285.25 889.4 1289.15 886.1C1293.05 882.5 1295.15 879.35 1295.45 876.65C1296.05 873.95 1296.5 870.5 1296.8 866.3C1297.1 862.1 1297.25 857.9 1297.25 853.7C1297.25 849.2 1296.95 845.3 1296.35 842C1295.75 838.7 1295 836.6 1294.1 835.7C1291.7 832.4 1286.6 828.35 1278.8 823.55C1271 818.45 1262 813.05 1251.8 807.35C1241.6 801.35 1231.4 795.35 1221.2 789.35C1211 783.35 1202.3 777.65 1195.1 772.25C1187.9 766.85 1183.4 762.35 1181.6 758.75C1180.7 756.05 1179.8 752.3 1178.9 747.5C1178.3 742.4 1177.85 736.85 1177.55 730.85C1177.25 724.55 1176.95 718.55 1176.65 712.85C1171.25 717.05 1167.2 720.8 1164.5 724.1C1161.8 727.1 1160 730.1 1159.1 733.1C1158.5 736.1 1158.2 739.85 1158.2 744.35C1158.2 750.65 1158.5 755.9 1159.1 760.1C1159.7 764.3 1160.9 768.05 1162.7 771.35C1165.4 776.15 1169.6 780.5 1175.3 784.4C1181 788.3 1188.5 793.25 1197.8 799.25C1205.3 803.75 1213.25 808.55 1221.65 813.65C1230.05 818.45 1238 823.25 1245.5 828.05C1253 832.85 1259.45 837.2 1264.85 841.1C1270.25 845 1273.55 848.15 1274.75 850.55C1276.55 853.25 1277.3 856.7 1277 860.9C1276.7 864.8 1276.25 868.1 1275.65 870.8C1274.15 873.5 1271 876.5 1266.2 879.8C1261.7 882.8 1257.35 885.35 1253.15 887.45C1253.45 884.15 1253.6 880.7 1253.6 877.1C1253.9 873.5 1253.9 870.2 1253.6 867.2C1253.6 864.2 1253.15 862.1 1252.25 860.9C1249.85 857.9 1244.9 854 1237.4 849.2C1230.2 844.4 1221.65 839.15 1211.75 833.45C1201.85 827.45 1191.95 821.45 1182.05 815.45C1172.15 809.15 1163.45 803.15 1155.95 797.45C1148.75 791.45 1144.1 786.35 1142 782.15C1140.8 779.15 1139.75 775.25 1138.85 770.45C1138.25 765.35 1137.8 759.95 1137.5 754.25C1137.5 748.55 1137.65 743.15 1137.95 738.05C1138.25 732.65 1138.85 728.3 1139.75 725C1141.85 719.9 1145.9 714.2 1151.9 707.9C1157.9 701.6 1164.8 695.3 1172.6 689C1180.7 682.7 1188.8 677 1196.9 671.9C1205.3 666.5 1213.1 662.3 1220.3 659.3C1227.8 656 1233.8 654.35 1238.3 654.35C1240.4 654.35 1244.15 654.5 1249.55 654.8C1255.25 655.1 1261.85 655.55 1269.35 656.15C1277.15 656.75 1285.25 657.5 1293.65 658.4C1302.05 659.3 1309.85 660.2 1317.05 661.1C1324.55 662 1331 662.9 1336.4 663.8L1332.8 743H1303.55L1295 695.3C1290.8 693.2 1285.4 691.25 1278.8 689.45C1272.2 687.65 1265.6 686.15 1259 684.95C1252.4 683.75 1247.15 683.15 1243.25 683.15C1241.15 683.15 1239.35 683.3 1237.85 683.6C1236.35 683.9 1235 684.35 1233.8 684.95C1232.9 685.55 1232.15 686.45 1231.55 687.65C1230.05 689.45 1229 692.45 1228.4 696.65C1227.8 700.85 1227.5 705.35 1227.5 710.15C1227.8 714.95 1228.25 719.3 1228.85 723.2C1229.75 727.1 1230.8 729.8 1232 731.3C1234.4 734.3 1238.9 737.9 1245.5 742.1C1252.4 746.3 1260.2 750.8 1268.9 755.6C1277.6 760.1 1286.6 765.05 1295.9 770.45C1305.5 775.55 1314.2 780.95 1322 786.65C1329.8 792.05 1335.95 797.45 1340.45 802.85C1341.35 805.85 1341.95 810.5 1342.25 816.8C1342.85 823.1 1343.15 829.85 1343.15 837.05C1343.45 844.25 1343.45 851.3 1343.15 858.2C1342.85 865.1 1342.4 870.95 1341.8 875.75C1338.8 882.35 1333.55 889.25 1326.05 896.45C1318.55 903.65 1310 910.4 1300.4 916.7C1291.1 922.7 1282.25 927.5 1273.85 931.1C1265.45 934.7 1258.85 936.5 1254.05 936.5C1248.05 936.5 1239.95 936.2 1229.75 935.6C1219.55 935.3 1208.6 934.85 1196.9 934.25C1185.5 933.65 1174.4 933.05 1163.6 932.45C1153.1 931.85 1144.25 931.1 1137.05 930.2Z" fill="#1D1D1D"/>
<path d="M1407.56 936.5C1406.66 936.5 1404.56 935.15 1401.26 932.45C1397.96 930.05 1394.81 927.5 1391.81 924.8C1389.11 922.1 1387.76 920.15 1387.76 918.95V758.75L1370.66 752.9V731.75C1370.66 731.75 1372.91 731.3 1377.41 730.4C1382.21 729.5 1387.91 728.6 1394.51 727.7C1401.11 726.5 1407.11 725.6 1412.51 725C1417.91 724.1 1421.21 723.65 1422.41 723.65C1423.61 723.65 1425.56 724.85 1428.26 727.25C1431.26 729.65 1433.96 732.35 1436.36 735.35C1439.06 738.05 1440.41 740.15 1440.41 741.65V901.85L1457.06 906.8V927.95C1457.06 927.95 1454.81 928.4 1450.31 929.3C1445.81 930.2 1440.41 931.1 1434.11 932C1428.11 933.2 1422.41 934.25 1417.01 935.15C1411.91 936.05 1408.76 936.5 1407.56 936.5ZM1383.26 652.1C1383.26 651.2 1384.76 649.55 1387.76 647.15C1391.06 644.45 1394.66 641.45 1398.56 638.15C1402.76 634.85 1406.51 632.15 1409.81 630.05C1413.41 627.65 1415.51 626.45 1416.11 626.45C1417.61 626.45 1420.01 627.8 1423.31 630.5C1426.61 633.2 1430.06 636.5 1433.66 640.4C1437.26 644.3 1440.26 648.05 1442.66 651.65C1445.36 654.95 1446.56 657.35 1446.26 658.85L1444.01 669.2C1443.71 670.4 1442.06 672.35 1439.06 675.05C1436.06 677.45 1432.61 680.15 1428.71 683.15C1424.81 686.15 1421.06 688.85 1417.46 691.25C1414.16 693.35 1412.06 694.4 1411.16 694.4C1409.66 694.4 1407.26 693.05 1403.96 690.35C1400.66 687.35 1397.21 683.9 1393.61 680C1390.31 676.1 1387.46 672.5 1385.06 669.2C1382.66 665.9 1381.46 663.65 1381.46 662.45L1383.26 652.1Z" fill="#1D1D1D"/>
<path d="M1549.82 691.7C1548.62 701.9 1547.27 711.95 1545.77 721.85C1544.57 731.75 1543.67 742.4 1543.07 753.8C1542.47 764.9 1542.17 777.65 1542.17 792.05C1542.17 819.65 1544.42 840.95 1548.92 855.95C1553.72 870.65 1560.17 880.85 1568.27 886.55C1576.37 892.25 1585.52 895.1 1595.72 895.1L1659.62 894.65V925.7C1655.42 926.9 1648.97 928.25 1640.27 929.75C1631.87 930.95 1623.02 932 1613.72 932.9C1604.42 934.1 1596.17 935 1588.97 935.6C1582.07 936.2 1577.72 936.5 1575.92 936.5C1558.52 936.5 1542.77 932 1528.67 923C1514.57 913.7 1503.47 899.45 1495.37 880.25C1487.27 861.05 1483.22 836.3 1483.22 806C1483.22 786.8 1484.42 769.25 1486.82 753.35C1489.52 737.45 1492.82 724.55 1496.72 714.65C1500.62 709.55 1506.02 704 1512.92 698C1519.82 691.7 1527.17 685.7 1534.97 680L1549.82 691.7ZM1568.27 896V689.45C1568.27 686.75 1569.32 682.25 1571.42 675.95C1573.52 669.65 1575.92 662.9 1578.62 655.7L1592.12 656.15V870.35C1592.12 872.15 1591.22 875.45 1589.42 880.25C1587.62 884.75 1585.07 890 1581.77 896H1568.27ZM1660.07 745.25H1630.82L1624.97 695.75C1621.67 694.85 1617.47 693.95 1612.37 693.05C1607.57 691.85 1602.77 690.95 1597.97 690.35C1593.47 689.45 1589.87 689 1587.17 689C1584.17 689 1581.62 689.15 1579.52 689.45C1577.72 689.45 1576.07 689.6 1574.57 689.9L1578.62 655.7C1580.12 655.1 1581.32 654.8 1582.22 654.8C1583.42 654.5 1584.62 654.35 1585.82 654.35C1590.62 654.35 1597.67 654.8 1606.97 655.7C1616.27 656.3 1626.17 657.05 1636.67 657.95C1647.47 658.85 1657.07 659.9 1665.47 661.1L1660.07 745.25Z" fill="#1D1D1D"/>
<path d="M1791.42 936.5C1759.02 936.5 1734.27 928.7 1717.17 913.1C1700.07 897.2 1691.52 872.45 1691.52 838.85C1691.52 825.35 1692.57 812.3 1694.67 799.7C1697.07 787.1 1699.77 777.8 1702.77 771.8C1705.47 768.2 1710.12 763.7 1716.72 758.3C1723.62 752.6 1731.12 747.2 1739.22 742.1C1747.62 737 1755.27 732.65 1762.17 729.05C1769.07 725.45 1774.02 723.65 1777.02 723.65C1809.42 723.65 1833.72 732.05 1849.92 748.85C1866.42 765.35 1874.67 788.9 1874.67 819.5C1874.67 834.5 1873.47 848.3 1871.07 860.9C1868.97 873.5 1866.57 883.25 1863.87 890.15C1861.47 893.45 1856.97 897.65 1850.37 902.75C1843.77 907.85 1836.42 913.1 1828.32 918.5C1820.22 923.6 1812.72 927.95 1805.82 931.55C1798.92 934.85 1794.12 936.5 1791.42 936.5ZM1792.77 907.25C1793.67 906.95 1795.62 906.2 1798.62 905C1801.92 903.5 1804.92 902 1807.62 900.5C1810.62 899 1812.12 898.25 1812.12 898.25C1813.62 891.35 1815.12 882.2 1816.62 870.8C1818.12 859.4 1818.87 844.4 1818.87 825.8C1818.87 812 1817.37 799.7 1814.37 788.9C1811.37 777.8 1806.57 769.1 1799.97 762.8C1793.67 756.2 1785.42 752.9 1775.22 752.9C1772.82 752.9 1770.42 753.2 1768.02 753.8C1765.62 754.1 1763.07 754.7 1760.37 755.6C1756.77 757.4 1753.62 765.05 1750.92 778.55C1748.52 792.05 1747.32 810.05 1747.32 832.55C1747.32 852.65 1749.57 868.25 1754.07 879.35C1758.87 890.15 1764.72 897.5 1771.62 901.4C1778.82 905.3 1785.87 907.25 1792.77 907.25Z" fill="#1D1D1D"/>
<path d="M1987.04 723.65C1989.44 723.65 1993.64 724.1 1999.64 725C2005.64 725.6 2012.54 726.5 2020.34 727.7V674.6L2003.24 667.85V646.7C2003.24 646.7 2004.89 646.55 2008.19 646.25C2011.49 645.65 2015.54 644.9 2020.34 644C2025.44 643.1 2030.54 642.2 2035.64 641.3C2041.04 640.4 2045.69 639.8 2049.59 639.5C2053.79 638.9 2056.34 638.6 2057.24 638.6C2058.14 638.6 2059.94 639.8 2062.64 642.2C2065.34 644.3 2067.89 646.7 2070.29 649.4C2072.69 651.8 2073.89 653.6 2073.89 654.8L2071.19 738.05V900.5L2087.84 907.25V928.4C2087.84 928.4 2085.44 928.85 2080.64 929.75C2076.14 930.65 2070.74 931.55 2064.44 932.45C2058.14 933.65 2052.29 934.55 2046.89 935.15C2041.49 936.05 2038.04 936.5 2036.54 936.5C2035.94 936.5 2034.29 935.3 2031.59 932.9C2028.89 930.8 2026.34 928.4 2023.94 925.7C2021.54 923 2020.34 921.2 2020.34 920.3V905.45C2015.84 909.05 2010.29 913.4 2003.69 918.5C1997.39 923.3 1991.69 927.5 1986.59 931.1C1981.49 934.7 1978.34 936.5 1977.14 936.5C1963.94 936.5 1951.64 932.9 1940.24 925.7C1929.14 918.5 1920.14 907.85 1913.24 893.75C1906.64 879.35 1903.34 861.5 1903.34 840.2C1903.34 825.2 1904.39 811.4 1906.49 798.8C1908.89 786.2 1911.59 776.6 1914.59 770C1917.29 766.7 1921.94 762.5 1928.54 757.4C1935.14 752 1942.34 746.75 1950.14 741.65C1958.24 736.55 1965.59 732.35 1972.19 729.05C1979.09 725.45 1984.04 723.65 1987.04 723.65ZM1973.99 752.45C1970.99 753.35 1968.29 756.5 1965.89 761.9C1963.79 767.3 1962.14 775.85 1960.94 787.55C1959.74 798.95 1959.14 814.55 1959.14 834.35C1959.14 848.45 1960.64 860.15 1963.64 869.45C1966.64 878.75 1970.09 885.8 1973.99 890.6C1977.89 895.1 1981.34 897.35 1984.34 897.35C1985.54 897.35 1987.79 896.6 1991.09 895.1C1994.69 893.6 1998.59 891.8 2002.79 889.7C2007.29 887.6 2011.04 885.8 2014.04 884.3C2017.04 882.8 2018.54 882.05 2018.54 882.05V763.25C2014.64 761.75 2009.54 760.1 2003.24 758.3C1997.24 756.2 1991.54 754.55 1986.14 753.35C1980.74 752.15 1976.69 751.85 1973.99 752.45Z" fill="#1D1D1D"/>
<path d="M2167.86 834.35C2167.86 850.55 2169.96 863.3 2174.16 872.6C2178.36 881.9 2183.31 888.5 2189.01 892.4C2194.71 896 2199.96 897.8 2204.76 897.8C2205.66 897.8 2208.51 897.8 2213.31 897.8C2218.11 897.5 2223.81 897.2 2230.41 896.9C2237.31 896.6 2244.06 896.3 2250.66 896C2257.26 895.7 2262.81 895.4 2267.31 895.1V917.6C2262.51 919.4 2256.36 921.35 2248.86 923.45C2241.66 925.55 2234.16 927.65 2226.36 929.75C2218.86 931.55 2212.11 933.05 2206.11 934.25C2200.11 935.75 2195.91 936.5 2193.51 936.5C2178.81 936.5 2165.31 932.9 2153.01 925.7C2141.01 918.5 2131.26 907.85 2123.76 893.75C2116.56 879.65 2112.96 862.1 2112.96 841.1C2112.96 826.4 2114.01 812.6 2116.11 799.7C2118.51 786.8 2121.21 777.2 2124.21 770.9C2126.91 767.3 2131.56 762.95 2138.16 757.85C2145.06 752.45 2152.56 747.2 2160.66 742.1C2168.76 736.7 2176.26 732.35 2183.16 729.05C2190.06 725.45 2195.16 723.65 2198.46 723.65C2215.26 723.65 2229.21 726.5 2240.31 732.2C2251.71 737.9 2260.11 748.55 2265.51 764.15C2271.21 779.45 2274.06 801.65 2274.06 830.75L2145.36 844.25V822.65L2220.96 809.15C2221.26 792.35 2219.61 779 2216.01 769.1C2212.71 759.2 2206.11 753.95 2196.21 753.35C2194.11 753.05 2191.56 752.9 2188.56 752.9C2185.86 752.9 2183.31 753.5 2180.91 754.7C2177.01 756.8 2173.86 764.9 2171.46 779C2169.06 793.1 2167.86 811.55 2167.86 834.35Z" fill="#1D1D1D"/>
<path d="M2389.24 936.5C2386.24 936.5 2380.99 936.35 2373.49 936.05C2366.29 935.75 2358.04 935.3 2348.74 934.7C2339.74 934.1 2330.89 933.35 2322.19 932.45C2313.79 931.85 2306.74 931.25 2301.04 930.65L2301.94 861.8L2328.94 861.35L2338.39 896.45C2343.19 897.95 2348.59 899.45 2354.59 900.95C2360.89 902.45 2366.74 903.8 2372.14 905C2377.54 905.9 2381.74 906.35 2384.74 906.35C2386.24 906.35 2387.74 905.3 2389.24 903.2C2391.04 900.8 2392.54 897.95 2393.74 894.65C2395.24 891.05 2395.99 887.9 2395.99 885.2C2395.99 880.1 2394.34 875.75 2391.04 872.15C2387.74 868.25 2382.79 864.35 2376.19 860.45C2369.89 856.55 2361.64 851.9 2351.44 846.5C2338.84 839.3 2328.94 832.85 2321.74 827.15C2314.54 821.15 2309.44 815 2306.44 808.7C2303.44 802.1 2301.94 794.9 2301.94 787.1C2301.94 783.2 2302.09 779.15 2302.39 774.95C2302.99 770.75 2303.74 767.15 2304.64 764.15C2307.34 760.55 2310.94 756.5 2315.44 752C2320.24 747.2 2325.34 742.7 2330.74 738.5C2336.14 734 2341.24 730.4 2346.04 727.7C2350.84 725 2354.44 723.65 2356.84 723.65C2360.74 723.65 2366.14 723.8 2373.04 724.1C2380.24 724.1 2387.89 724.4 2395.99 725C2404.09 725.3 2411.74 725.75 2418.94 726.35C2426.44 726.65 2432.44 727.1 2436.94 727.7L2435.59 786.2H2405.89L2402.74 761.9C2401.54 761.3 2398.69 760.7 2394.19 760.1C2389.99 759.2 2385.19 758.3 2379.79 757.4C2374.39 756.5 2369.44 755.75 2364.94 755.15C2360.44 754.55 2357.44 754.25 2355.94 754.25C2354.44 754.25 2353.09 754.85 2351.89 756.05C2350.69 757.25 2349.64 759.05 2348.74 761.45C2348.14 763.55 2347.84 766.25 2347.84 769.55C2347.84 774.95 2349.64 779.75 2353.24 783.95C2357.14 787.85 2361.64 791.45 2366.74 794.75C2372.14 797.75 2377.24 800.75 2382.04 803.75C2388.04 807.35 2394.64 811.25 2401.84 815.45C2409.34 819.65 2416.54 824.3 2423.44 829.4C2430.64 834.5 2436.34 840.05 2440.54 846.05C2445.04 851.75 2447.29 858.05 2447.29 864.95C2447.29 868.25 2447.14 872.15 2446.84 876.65C2446.54 881.15 2445.64 885.5 2444.14 889.7C2441.74 893.6 2438.29 898.25 2433.79 903.65C2429.59 908.75 2424.64 913.85 2418.94 918.95C2413.54 924.05 2408.14 928.25 2402.74 931.55C2397.64 934.85 2393.14 936.5 2389.24 936.5Z" fill="#1D1D1D"/>
</svg>
